<svg xmlns="http://www.w3.org/2000/svg" viewBox="0 0 501.551 501.551">
  <path d="M480.653 78.367H20.898C9.404 78.367 0 87.771 0 99.265v311.38c0 11.494 9.404 20.898 20.898 20.898h459.755c11.494 0 20.898-9.404 20.898-20.898V99.265c0-11.494-9.404-20.898-20.898-20.898z" fill="#40596b"/>
  <path fill="#fff" d="M31.347 109.714h438.857v289.437H31.347z"/>
  <path fill="#cdd6e0" d="M154.645 431.543h191.216v56.425H154.645z"/>
  <path fill="#f2f2f2" d="M97.176 487.967h307.2v13.584h-307.2z"/>
  <path fill="#acb3ba" d="M154.645 431.543h191.216v15.673H154.645z"/>
  <path d="M432.588 117.029v265.404c0 9.404-7.314 16.718-16.718 16.718H84.637c-9.404 0-16.718-7.314-16.718-16.718V117.029h364.669z" fill="#f2f2f2"/>
  <g fill="#fff">
    <path d="M252.865 191.216v39.706h-4.18v-39.706h4.18zM252.865 343.771v39.706h-4.18v-39.706h4.18zM319.739 220.473l-28.212 28.212-3.135-3.135 28.212-28.212 3.135 3.135zM212.114 329.143l-28.212 28.212-3.135-3.135 28.212-28.212 3.135 3.135zM346.906 285.257v4.18h-38.661v-2.09-2.09h38.661zM194.351 287.347v2.09H155.69v-4.18h38.661v2.09zM319.739 353.176l-3.135 3.135-27.167-27.167 3.135-3.135 27.167 27.167zM212.114 245.551l-3.135 3.135-28.212-28.212 3.135-3.135 28.212 28.212zM230.922 234.057c-1.045 0-2.09 1.045-4.18 2.09l-9.404-21.943 4.18-2.09 9.404 21.943zM283.167 361.535l-4.18 2.09-9.404-21.943c1.045 0 2.09-1.045 4.18-2.09l9.404 21.943zM199.576 263.314c-1.045 1.045-1.045 2.09-2.09 4.18l-21.943-9.404 2.09-4.18 21.943 9.404zM326.008 316.604l-2.09 4.18-21.943-9.404c1.045-1.045 1.045-2.09 2.09-4.18l21.943 9.404zM199.576 310.335l-21.943 9.404-2.09-4.18 21.943-9.404c1.045 2.09 1.045 3.135 2.09 4.18zM326.008 258.09l-21.943 9.404c0-1.045-1.045-2.09-2.09-4.18l21.943-9.404 2.09 4.18zM230.922 340.637l-9.404 21.943-4.18-2.09 9.404-21.943c2.091 1.045 3.136 1.045 4.18 2.09zM283.167 213.159l-8.359 21.943c-1.045-1.045-2.09-1.045-4.18-2.09l9.404-21.943 3.135 2.09z"/>
  </g>
  <path d="M411.69 0H89.861C78.367 0 68.963 9.404 68.963 20.898v54.335h364.669V20.898C432.588 9.404 423.184 0 411.69 0z" fill="#ffd15c"/>
  <path fill="#40596b" d="M324.963 273.763l19.853 71.053 17.764-17.763 16.718 17.763 15.673-15.673-16.718-17.763 16.718-17.764z"/>
  <ellipse cx="205.845" cy="37.616" rx="12.539" ry="12.539" fill="#f8b64c"/>
  <ellipse cx="157.78" cy="37.616" rx="12.539" ry="12.539" fill="#ff7058"/>
  <ellipse cx="109.714" cy="37.616" rx="12.539" ry="12.539" fill="#f8b64c"/>
  <path d="M432.588 125.388v49.11c-6.269 5.224-14.629 7.314-22.988 7.314-21.943 0-39.706-17.763-39.706-39.706 0 21.943-17.763 39.706-39.706 39.706s-39.706-17.763-39.706-39.706c0 21.943-17.763 39.706-39.706 39.706s-39.706-17.763-39.706-39.706c0 21.943-17.763 39.706-39.706 39.706s-39.706-17.763-39.706-39.706c0 21.943-17.763 39.706-39.706 39.706-8.359 0-16.718-3.135-22.988-7.314v-49.11h363.624z" fill="#e4eaef"/>
  <path fill="#ff7058" d="M131.657 117.029H52.245l16.718-41.796h72.098z"/>
  <path fill="#cdd6e0" d="M211.069 117.029h-79.412l9.404-41.796h73.143z"/>
  <path fill="#ff7058" d="M290.482 117.029h-79.413l3.135-41.796h73.143z"/>
  <path fill="#cdd6e0" d="M369.894 117.029h-79.412l-3.135-41.796h73.143z"/>
  <path fill="#ff7058" d="M449.306 117.029h-79.412l-9.404-41.796h72.098z"/>
  <g fill="#acb3ba">
    <path d="M131.657 134.792c0 21.943 17.763 39.706 39.706 39.706s39.706-17.763 39.706-39.706v-17.763h-79.412v17.763zM290.482 117.029v17.763c0 21.943 17.763 39.706 39.706 39.706s39.706-17.763 39.706-39.706v-17.763h-79.412z"/>
  </g>
  <g fill="#f1543f">
    <path d="M52.245 134.792c0 21.943 17.763 39.706 39.706 39.706s39.706-17.763 39.706-39.706v-17.763H52.245v17.763zM211.069 134.792c0 21.943 17.763 39.706 39.706 39.706s39.706-17.763 39.706-39.706v-17.763h-79.412v17.763zM369.894 117.029v17.763c0 21.943 17.763 39.706 39.706 39.706s39.706-17.763 39.706-39.706v-17.763h-79.412z"/>
  </g>
  <ellipse cx="250.776" cy="287.347" rx="61.649" ry="62.694" fill="#ff7058"/>
  <g fill="#fff">
    <path d="M240.327 306.155l-2.09-7.314h48.065V262.27h-57.469l-3.135-13.584H208.98v6.269h12.539l14.629 57.469h52.245v-6.269h-48.066zm39.706-38.661v24.033h-42.841l-6.269-24.033h49.11z"/>
    <ellipse cx="249.731" cy="323.918" rx="7.314" ry="7.314"/>
    <ellipse cx="276.898" cy="323.918" rx="7.314" ry="7.314"/>
  </g>
</svg>